<svg width="24" height="24" viewBox="0 0 24 24" fill="none" xmlns="http://www.w3.org/2000/svg">
<path d="M20.6059 2.08099L2.60592 9.79999C2.40942 9.88812 2.24662 10.0373 2.14174 10.2254C2.03686 10.4135 1.9955 10.6304 2.02382 10.8439C2.05213 11.0574 2.14861 11.256 2.29889 11.4103C2.44918 11.5645 2.64524 11.6661 2.85792 11.7L11.1159 12.88L12.2959 21.138C12.3269 21.3539 12.4276 21.5537 12.5827 21.7071C12.7377 21.8604 12.9387 21.9589 13.1549 21.9874C13.3711 22.016 13.5908 21.973 13.7803 21.8652C13.9699 21.7573 14.119 21.5905 14.2049 21.39L21.9189 3.38999C21.9976 3.2063 22.0195 3.00325 21.9817 2.80702C21.9439 2.61079 21.8481 2.43039 21.7068 2.28908C21.5655 2.14777 21.3851 2.05204 21.1889 2.01424C20.9927 1.97644 20.7896 1.9983 20.6059 2.07699V2.08099ZM13.7709 17.328L12.9899 11.858C12.9592 11.644 12.86 11.4457 12.7071 11.2928C12.5543 11.1399 12.3559 11.0407 12.1419 11.01L6.67092 10.229L19.0999 4.89999L13.7709 17.328Z" fill="white"/>
</svg>
