<svg width="26" height="26" viewBox="0 0 26 26" fill="none" xmlns="http://www.w3.org/2000/svg">
<path d="M11.7101 3.4009L12.307 2.50305C10.8475 2.8077 8.91434 3.6324 7.87051 4.69698C7.04188 5.54622 6.39168 6.55278 5.95825 7.65731C5.52482 8.76184 5.31693 9.94196 5.34684 11.1281C5.34189 16.517 11.6726 24.1742 11.9392 24.5002C12.0331 24.6133 12.1508 24.7044 12.2839 24.7668C12.417 24.8293 12.5622 24.8616 12.7092 24.8615C12.8562 24.86 13.0011 24.8269 13.1342 24.7645C13.2672 24.7022 13.3854 24.6121 13.4807 24.5002C13.7501 24.1771 20.0738 16.5269 20.0766 11.1316C20.0738 6.08149 16.0474 3.0602 13.1129 2.503L13.7098 3.4009C13.7052 3.13873 13.5979 2.88884 13.4109 2.70505C13.2239 2.52126 12.9722 2.41828 12.7099 2.41828C12.4477 2.41828 12.196 2.52127 12.009 2.70505C11.822 2.88884 11.7147 3.13873 11.7101 3.4009ZM18.0741 11.1288C18.0734 14.7824 14.3575 20.078 12.7092 22.2396C11.0631 20.0773 7.34583 14.7874 7.34583 11.1288C7.34937 7.18246 10.1111 5.18912 12.009 4.65031L11.7101 4.12882C11.7147 4.39099 11.5771 4.46652 11.7641 4.65031C11.9511 4.8341 12.3145 4.65031 12.5767 4.65031C12.8389 4.65031 13.3896 4.8341 13.5766 4.65031C13.7636 4.46652 13.7052 4.39099 13.7098 4.12882L13.4109 4.69698C15.3088 5.23579 18.0741 7.18741 18.0741 11.1288Z" fill="white"/>
<circle cx="12.2764" cy="10.4183" r="1.5" stroke="white"/>
</svg>
