<svg width="24" height="19" viewBox="0 0 24 19" fill="none" xmlns="http://www.w3.org/2000/svg">
<path d="M22.9091 0H1.09091C0.801582 0 0.524105 0.11121 0.31952 0.309165C0.114935 0.50712 0 0.775605 0 1.05556V17.9444C0 18.2244 0.114935 18.4929 0.31952 18.6908C0.524105 18.8888 0.801582 19 1.09091 19H22.9091C23.1984 19 23.4759 18.8888 23.6805 18.6908C23.8851 18.4929 24 18.2244 24 17.9444V1.05556C24 0.775605 23.8851 0.50712 23.6805 0.309165C23.4759 0.11121 23.1984 0 22.9091 0ZM21.8182 16.8889H2.18182V2.11111H21.8182V16.8889ZM3.41673 4.75C3.48818 4.6295 3.58351 4.52384 3.69725 4.43907C3.811 4.35429 3.94092 4.29208 4.07956 4.25599C4.21821 4.2199 4.36285 4.21065 4.5052 4.22877C4.64755 4.24688 4.7848 4.29201 4.90909 4.36156L12 8.284L19.0909 4.36156C19.342 4.22158 19.6404 4.18387 19.9202 4.25672C20.2001 4.32956 20.4386 4.507 20.5833 4.75C20.7279 4.993 20.7669 5.28165 20.6916 5.55245C20.6163 5.82325 20.433 6.05402 20.1818 6.194L12.5455 10.4162C12.3807 10.5073 12.1942 10.5552 12.0044 10.5552C11.8146 10.5552 11.6281 10.5073 11.4633 10.4162L3.82691 6.194C3.70165 6.12557 3.59161 6.03385 3.50312 5.92411C3.41464 5.81437 3.34946 5.68878 3.31134 5.55457C3.27322 5.42036 3.2629 5.28018 3.28099 5.1421C3.29908 5.00402 3.34521 4.87076 3.41673 4.75ZM8.40764 10.8606C8.61215 11.0586 8.72704 11.327 8.72704 11.6069C8.72704 11.8868 8.61215 12.1552 8.40764 12.3532L6.22582 14.4643C6.02007 14.6566 5.7445 14.7629 5.45847 14.7605C5.17244 14.7581 4.89883 14.6471 4.69656 14.4514C4.4943 14.2557 4.37957 13.991 4.37708 13.7142C4.3746 13.4374 4.48456 13.1708 4.68327 12.9717L6.86509 10.8606C7.07024 10.6633 7.348 10.5529 7.63727 10.5537C7.92654 10.5545 8.20364 10.6664 8.40764 10.8648V10.8606ZM19.3167 12.9717C19.4209 13.0691 19.504 13.1856 19.5612 13.3144C19.6184 13.4431 19.6485 13.5816 19.6497 13.7218C19.651 13.862 19.6234 14.0009 19.5685 14.1307C19.5137 14.2604 19.4327 14.3783 19.3302 14.4774C19.2278 14.5765 19.106 14.6549 18.9719 14.7079C18.8379 14.761 18.6942 14.7877 18.5494 14.7865C18.4045 14.7853 18.2614 14.7562 18.1283 14.7008C17.9952 14.6455 17.8748 14.5651 17.7742 14.4643L15.5924 12.3532C15.3936 12.1541 15.2837 11.8875 15.2862 11.6107C15.2887 11.3339 15.4034 11.0692 15.6057 10.8735C15.8079 10.6778 16.0815 10.5667 16.3676 10.5643C16.6536 10.5619 16.9292 10.6683 17.1349 10.8606L19.3167 12.9717Z" fill="white"/>
</svg>
