<svg width="22" height="18" viewBox="0 0 22 18" fill="none" xmlns="http://www.w3.org/2000/svg">
<path d="M0.277642 6.43118C1.60671 10.7514 8.86411 16.6933 14.1434 17.7758C14.8561 17.9236 15.5883 17.9989 16.3235 18C17.7206 17.9995 19.0962 17.7185 20.3297 17.1818C20.7619 16.9971 21.135 16.7318 21.4188 16.4074C21.7026 16.083 21.8893 15.7086 21.9636 15.3143C22.038 14.9201 21.998 14.517 21.8469 14.1377C21.6958 13.7584 21.4378 13.4135 21.0938 13.1308L19.0077 11.424C18.5655 11.0623 18.0003 10.818 17.386 10.723C16.7716 10.628 16.1365 10.6866 15.5635 10.8913C15.0168 11.0845 14.5181 11.3582 14.0924 11.6989C13.9144 11.8437 13.5864 11.8666 13.1153 11.7619C11.8805 11.3513 10.7587 10.7425 9.81604 9.97139C8.87343 9.20031 8.12912 8.28256 7.62704 7.27231C7.50104 6.88693 7.52704 6.61774 7.70505 6.47291C8.1219 6.12411 8.45682 5.71557 8.6931 5.26767C8.94266 4.79901 9.01402 4.27975 8.89791 3.77745C8.78179 3.27515 8.48358 2.81308 8.04207 2.45136L5.95595 0.745367C5.61438 0.462473 5.19547 0.250092 4.73382 0.12575C4.27216 0.00140931 3.78098 -0.0313273 3.30081 0.0302423C2.81519 0.0885901 2.35345 0.240441 1.95358 0.473301C1.5537 0.706162 1.22711 1.01338 1.00068 1.36967C-0.00667227 2.92319 -0.2647 4.72947 0.277642 6.43118ZM2.77378 2.12898C2.85541 2.00113 2.97293 1.89094 3.1167 1.80745C3.26046 1.72396 3.42638 1.66955 3.60082 1.64868C3.65605 1.64148 3.7119 1.63793 3.76783 1.63805C3.91181 1.63801 4.05436 1.66135 4.18723 1.70671C4.3201 1.75208 4.44064 1.81857 4.54187 1.90233L6.62699 3.60832C6.78379 3.73511 6.89042 3.89753 6.93304 4.0745C6.97566 4.25147 6.9523 4.43484 6.866 4.60082C6.72943 4.8672 6.53456 5.11094 6.29097 5.32004C5.93327 5.63184 5.68864 6.01891 5.58443 6.43796C5.48023 6.85701 5.52057 7.29151 5.70094 7.69288C6.42298 9.90207 9.90617 12.7487 12.6013 13.3386C13.0938 13.4859 13.6267 13.518 14.1402 13.4313C14.6537 13.3445 15.1275 13.1425 15.5085 12.8477C15.7626 12.6486 16.0587 12.4889 16.3825 12.3764C16.5855 12.3056 16.8098 12.2864 17.0263 12.3212C17.2429 12.3561 17.4415 12.4435 17.5966 12.5719L19.6817 14.2779C19.8043 14.3771 19.8963 14.4988 19.9502 14.6327C20.0041 14.7667 20.0183 14.9093 19.9917 15.0487C19.9657 15.1916 19.8986 15.3274 19.7958 15.4449C19.6931 15.5624 19.5576 15.6583 19.4007 15.7245C17.9405 16.3666 16.2361 16.5293 14.6344 16.1795C10.0902 15.2541 3.36081 9.74825 2.21675 6.03189C1.78975 4.72026 1.98891 3.32483 2.77378 2.12898Z" fill="white"/>
</svg>
