<svg width="22" height="18" viewBox="0 0 22 18" fill="none" xmlns="http://www.w3.org/2000/svg">
<path d="M20.1667 0.75H1.83332C1.59021 0.75 1.35705 0.846577 1.18514 1.01849C1.01323 1.19039 0.916656 1.42355 0.916656 1.66667V16.3333C0.916656 16.5764 1.01323 16.8096 1.18514 16.9815C1.35705 17.1534 1.59021 17.25 1.83332 17.25H20.1667C20.4098 17.25 20.6429 17.1534 20.8148 16.9815C20.9867 16.8096 21.0833 16.5764 21.0833 16.3333V1.66667C21.0833 1.42355 20.9867 1.19039 20.8148 1.01849C20.6429 0.846577 20.4098 0.75 20.1667 0.75ZM19.25 15.4167H2.74999V2.58333H19.25V15.4167ZM3.78766 4.875C3.8477 4.77036 3.9278 4.6786 4.02338 4.60498C4.11895 4.53136 4.22812 4.47733 4.34462 4.44599C4.46112 4.41465 4.58267 4.40662 4.70228 4.42235C4.82189 4.43808 4.93722 4.47727 5.04166 4.53767L11 7.944L16.9583 4.53767C17.1693 4.41611 17.42 4.38336 17.6552 4.44662C17.8904 4.50988 18.0908 4.66398 18.2123 4.875C18.3339 5.08602 18.3666 5.33669 18.3034 5.57186C18.2401 5.80703 18.086 6.00744 17.875 6.129L11.4583 9.79567C11.3198 9.87477 11.1631 9.91637 11.0037 9.91637C10.8442 9.91637 10.6875 9.87477 10.549 9.79567L4.13232 6.129C4.02707 6.06957 3.9346 5.98992 3.86025 5.89462C3.7859 5.79932 3.73114 5.69026 3.6991 5.57371C3.66707 5.45716 3.6584 5.33542 3.6736 5.21551C3.6888 5.0956 3.72756 4.97987 3.78766 4.875ZM7.98141 10.1816C8.15325 10.3535 8.24979 10.5866 8.24979 10.8297C8.24979 11.0727 8.15325 11.3059 7.98141 11.4777L6.14807 13.3111C5.97519 13.4781 5.74364 13.5705 5.50329 13.5684C5.26294 13.5663 5.03303 13.4699 4.86307 13.2999C4.69312 13.13 4.59671 12.9 4.59462 12.6597C4.59253 12.4194 4.68493 12.1878 4.85191 12.0149L6.68524 10.1816C6.85763 10.0102 7.09101 9.91434 7.33408 9.91503C7.57715 9.91572 7.80999 10.0129 7.98141 10.1853V10.1816ZM17.1481 12.0149C17.2356 12.0995 17.3055 12.2006 17.3535 12.3125C17.4015 12.4243 17.4268 12.5446 17.4279 12.6663C17.4289 12.788 17.4058 12.9087 17.3597 13.0214C17.3136 13.134 17.2455 13.2364 17.1594 13.3224C17.0734 13.4085 16.971 13.4766 16.8584 13.5227C16.7457 13.5688 16.625 13.592 16.5033 13.5909C16.3816 13.5898 16.2613 13.5646 16.1495 13.5165C16.0376 13.4685 15.9365 13.3986 15.8519 13.3111L14.0186 11.4777C13.8516 11.3049 13.7592 11.0733 13.7613 10.833C13.7634 10.5926 13.8598 10.3627 14.0297 10.1927C14.1997 10.0228 14.4296 9.92639 14.67 9.9243C14.9103 9.92221 15.1419 10.0146 15.3147 10.1816L17.1481 12.0149Z" fill="#80B501"/>
</svg>
