<svg width="22" height="22" viewBox="0 0 22 22" fill="none" xmlns="http://www.w3.org/2000/svg">
<path d="M0.277017 7.85996C1.60602 13.14 8.86302 20.402 14.142 21.725C14.8547 21.9056 15.5868 21.9976 16.322 21.999C17.719 21.9983 19.0946 21.6549 20.328 20.999C20.7602 20.7732 21.1332 20.4491 21.417 20.0526C21.7008 19.6561 21.8875 19.1985 21.9618 18.7166C22.0362 18.2348 21.9962 17.7422 21.8451 17.2786C21.694 16.815 21.436 16.3935 21.092 16.048L19.006 13.962C18.5638 13.5199 17.9988 13.2214 17.3844 13.1053C16.7701 12.9892 16.135 13.0608 15.562 13.311C15.0153 13.547 14.5167 13.8816 14.091 14.298C13.913 14.475 13.585 14.503 13.114 14.375C11.8792 13.8731 10.7575 13.1291 9.8149 12.1867C8.87233 11.2443 8.12807 10.1227 7.62602 8.88796C7.50002 8.41696 7.52602 8.08796 7.70402 7.91096C8.12085 7.48466 8.45575 6.98536 8.69202 6.43796C8.94156 5.86518 9.01292 5.23056 8.89681 4.61666C8.7807 4.00277 8.4825 3.43804 8.04102 2.99596L5.95502 0.910961C5.61346 0.565218 5.19458 0.305653 4.73295 0.153688C4.27131 0.00172241 3.78016 -0.0382871 3.30002 0.036961C2.81443 0.108272 2.35272 0.293858 1.95286 0.578452C1.553 0.863046 1.22643 1.23851 1.00002 1.67396C-0.00728226 3.57262 -0.265296 5.78019 0.277017 7.85996ZM2.77302 2.60196C2.85464 2.44571 2.97216 2.31103 3.11592 2.209C3.25968 2.10696 3.42558 2.04046 3.60002 2.01496C3.65525 2.00616 3.71109 2.00181 3.76702 2.00196C3.91098 2.00191 4.05353 2.03044 4.18639 2.08588C4.31925 2.14133 4.43979 2.22259 4.54102 2.32496L6.62602 4.40996C6.78281 4.56492 6.88944 4.76342 6.93205 4.97971C6.97467 5.196 6.95131 5.4201 6.86502 5.62296C6.72845 5.94852 6.53359 6.2464 6.29002 6.50196C5.93233 6.88303 5.68772 7.3561 5.58352 7.86824C5.47932 8.38039 5.51966 8.91143 5.70002 9.40196C6.42202 12.102 9.90502 15.581 12.6 16.302C13.0925 16.482 13.6253 16.5212 14.1388 16.4152C14.6523 16.3092 15.1261 16.0622 15.507 15.702C15.7611 15.4586 16.0572 15.2635 16.381 15.126C16.584 15.0394 16.8083 15.016 17.0248 15.0586C17.2413 15.1012 17.44 15.208 17.595 15.365L19.68 17.45C19.8026 17.5712 19.8946 17.7199 19.9485 17.8836C20.0024 18.0474 20.0166 18.2216 19.99 18.392C19.964 18.5666 19.8969 18.7326 19.7941 18.8762C19.6914 19.0198 19.5559 19.137 19.399 19.218C17.9389 20.0027 16.2346 20.2015 14.633 19.774C10.089 18.643 3.36002 11.914 2.21602 7.37196C1.78904 5.76893 1.98819 4.06349 2.77302 2.60196Z" fill="#80B501"/>
</svg>
