<svg width="22" height="20" viewBox="0 0 22 20" fill="none" xmlns="http://www.w3.org/2000/svg">
<path d="M21 6.50013H18.535L14.835 0.945128C14.6878 0.724468 14.459 0.571319 14.1989 0.519371C13.9388 0.467424 13.6687 0.520933 13.448 0.668128C13.2273 0.815324 13.0742 1.04415 13.0222 1.30426C12.9703 1.56437 13.0238 1.83447 13.171 2.05513L16.132 6.50013H5.868L8.832 2.05513C8.97919 1.83447 9.0327 1.56437 8.98076 1.30426C8.92881 1.04415 8.77566 0.815324 8.555 0.668128C8.33434 0.520933 8.06424 0.467424 7.80413 0.519371C7.54402 0.571319 7.3152 0.724468 7.168 0.945128L3.465 6.50013H1C0.734784 6.50013 0.48043 6.60549 0.292893 6.79302C0.105357 6.98056 0 7.23491 0 7.50013C0 7.76534 0.105357 8.0197 0.292893 8.20723C0.48043 8.39477 0.734784 8.50013 1 8.50013H2V16.5001C2 17.2958 2.31607 18.0588 2.87868 18.6214C3.44129 19.1841 4.20435 19.5001 5 19.5001H17C17.7956 19.5001 18.5587 19.1841 19.1213 18.6214C19.6839 18.0588 20 17.2958 20 16.5001V8.50013H21C21.2652 8.50013 21.5196 8.39477 21.7071 8.20723C21.8946 8.0197 22 7.76534 22 7.50013C22 7.23491 21.8946 6.98056 21.7071 6.79302C21.5196 6.60549 21.2652 6.50013 21 6.50013ZM18 16.5001C18 16.7653 17.8946 17.0197 17.7071 17.2072C17.5196 17.3948 17.2652 17.5001 17 17.5001H5C4.73478 17.5001 4.48043 17.3948 4.29289 17.2072C4.10536 17.0197 4 16.7653 4 16.5001V8.50013H18V16.5001ZM6 15.0001V11.0001C6 10.7349 6.10536 10.4806 6.29289 10.293C6.48043 10.1055 6.73478 10.0001 7 10.0001C7.26522 10.0001 7.51957 10.1055 7.70711 10.293C7.89464 10.4806 8 10.7349 8 11.0001V15.0001C8 15.2653 7.89464 15.5197 7.70711 15.7072C7.51957 15.8948 7.26522 16.0001 7 16.0001C6.73478 16.0001 6.48043 15.8948 6.29289 15.7072C6.10536 15.5197 6 15.2653 6 15.0001ZM10 15.0001V11.0001C10 10.7349 10.1054 10.4806 10.2929 10.293C10.4804 10.1055 10.7348 10.0001 11 10.0001C11.2652 10.0001 11.5196 10.1055 11.7071 10.293C11.8946 10.4806 12 10.7349 12 11.0001V15.0001C12 15.2653 11.8946 15.5197 11.7071 15.7072C11.5196 15.8948 11.2652 16.0001 11 16.0001C10.7348 16.0001 10.4804 15.8948 10.2929 15.7072C10.1054 15.5197 10 15.2653 10 15.0001ZM14 15.0001V11.0001C14 10.7349 14.1054 10.4806 14.2929 10.293C14.4804 10.1055 14.7348 10.0001 15 10.0001C15.2652 10.0001 15.5196 10.1055 15.7071 10.293C15.8946 10.4806 16 10.7349 16 11.0001V15.0001C16 15.2653 15.8946 15.5197 15.7071 15.7072C15.5196 15.8948 15.2652 16.0001 15 16.0001C14.7348 16.0001 14.4804 15.8948 14.2929 15.7072C14.1054 15.5197 14 15.2653 14 15.0001Z" fill="white"/>
</svg>
